<?xml version="1.0" standalone="no"?>
<!DOCTYPE svg PUBLIC "-//W3C//DTD SVG 20010904//EN"
        "http://www.w3.org/TR/2001/REC-SVG-20010904/DTD/svg10.dtd">
<svg version="1.0" xmlns="http://www.w3.org/2000/svg"
     width="81.000000pt" height="85.000000pt" viewBox="0 0 81.000000 85.000000">

    <rect x="18" y="30" width="48" height="33" fill="#ffffff" opacity="0.7"/>

    <ellipse
            cx="42"
            cy="30"
            rx="24"
            ry="10"
            fill="#ffffff"
            opacity="0.9"
    />

    <ellipse
            cx="42"
            cy="42"
            rx="24"
            ry="10"
            fill="#ffffff"
            opacity="0.8"
    />

    <ellipse
            cx="42"
            cy="54"
            rx="24"
            ry="10"
            fill="#ffffff"
            opacity="0.8"
    />

    <ellipse
            cx="42"
            cy="63"
            rx="24"
            ry="10"
            fill="#ffffff"
            opacity="0.8"
    />

    <g transform="translate(0.000000,85.000000) scale(0.100000,-0.100000)"
       fill="#000000" opacity="0.4">
        <path d="M199 500 c6 -8 35 -24 64 -37 75 -33 239 -33 314 0 29 13 58 29 64 7 15 18 0 18 -20 0 -71 -61 -333 -61 -402 0 -20 18 -35 18 -20 0z"/>
    </g>

    <g transform="translate(0.000000,85.000000) scale(0.100000,-0.100000)"
       fill="#000000" opacity="0.4">

        <path d="M199 380 c6 -8 35 -24 64 -37 75 -33 239 -33 314 0 29 13 58 29 64
37 15 18 0 18 -20 0 -71 -61 -333 -61 -402 0 -20 18 -35 18 -20 0z"/>

        <path d="M195 270 c13 -21 86 -50 154 -61 54 -9 88 -9 142 0 68 11 141 40 154
61 9 15 2 13 -51 -17 -46 -27 -56 -28 -174 -27 -123 0 -186 14 -205 44 -3 5
-11 10 -16 10 -6 0 -7 -5 -4 -10z"/>
    </g>

    <g transform="translate(0.000000,85.000000) scale(0.100000,-0.100000)" fill="#3a7ff7">
        <path d="M220 426 c0 -8 20 -21 46 -30 41 -14 45 -14 42 0 -2 9 -21 22 -43 30-49 17 -45 17 -45 0z"/>
        <path d="M223 306 c0 -9 19 -22 44 -30 38 -13 43 -13 43 0 0 14 -14 22 -66 38-14 4 -21 2 -21 -8z"/>
        <path d="M224 222 c-7 -12 -7 -12 33 -33 38 -19 53 -20 53 -3 0 16 -78 49 -8636z"/>
    </g>

</svg>
