<svg version="1.0" xmlns="http://www.w3.org/2000/svg"
     width="100"
     height="100"
     viewBox="0 0 98.000000 87.000000">

    <defs>
        <filter id="shadow" x="-50%" y="-50%" width="200%" height="200%">
            <feDropShadow dx="5" dy="2" stdDeviation="2" flood-color="black" flood-opacity="0.25"/>
        </filter>
    </defs>

    <polygon points="25,66 57,35 88,66 57,80" fill="#ffffff" opacity="0.6"/>

    <!-- Refined square background to better fit bottom edge -->
    <polygon filter="url(#shadow)"
             points="30,53 58,40 81,52 56,66"
             fill="#82baff" opacity="0.8"/>

    <polygon filter="url(#shadow)"
             points="30,46 57,35 83,47 55,60"
             fill="#82baff" opacity="0.8"/>


    <!-- Group containing a path element for the main design -->
    <g transform="translate(0.000000,87.000000) scale(0.100000,-0.100000)" fill="#3a7ff7">
        <!-- Path defining a complex shape with curves and lines -->
        <path d="M352 366 c-17 -7 -36 -16 -41 -22 -6 -5 38 -33 118 -73 l128 -63 131 63 c81 39 126 66 119 71 -17 11 -29 10 -22 -1 3 -5 -14 -18 -37 -28 -23 -10 -75 -34 -116 -54 l-75 -35 -89 43 c-49 24 -92 43 -96 43 -4 0 -15 7 -25 15 -18 13 -16 15 20 34 42 22 36 25 -15 7z"/>
    </g>

    <!-- Group containing a path element for a small detail -->
    <g transform="translate(0.000000,87.000000) scale(0.100000,-0.100000)" fill="#3a7ff7">
        <!-- Path defining a small curved shape -->
        <path d="M771 247 c-6 -8 -8 -16 -5 -20 10 -9 34 4 34 19 0 18 -14 18 -29 1z"/>
    </g>

    <!-- Group containing a path element for another detailed shape -->
    <g transform="translate(0.000000,87.000000) scale(0.100000,-0.100000)" fill="#3a7ff7">
        <!-- Path defining a complex shape with curves and lines -->
        <path d="M259 221 c8 -5 10 -14 6 -21 -5 -9 -4 -11 4 -6 16 10 51 -3 45 -17 -3 -9 5 -13 23 -12 18 0 27 -5 25 -13 -1 -8 5 -11 21 -6 15 3 30 0 40 -10 8 -9 18 -16 22 -16 3 0 31 -12 61 -26 52 -25 56 -25 93 -10 21 8 42 12 46 8 5 -4 5 -2 1 5 -8 15 37 29 56 17 10 -6 10 -4 -1 9 -12 15 -10 18 18 23 17 4 34 11 37 15 3 5 12 9 20 9 9 0 23 7 31 16 10 10 26 13 42 10 14 -3 20 -3 13 0 -10 5 -10 9 -1 20 6 8 9 14 5 14 -3 0 -73 -34 -156 -75 -144 -72 -150 -74 -177 -60 -64 34 -275 135 -281 135 -4 0 -1 -4 7 -9z"/>
    </g>

    <!-- Group containing a path element for a small curved detail -->
    <g transform="translate(0.000000,87.000000) scale(0.100000,-0.100000)" fill="#3a7ff7">
        <!-- Path defining a small curved shape -->
        <path d="M715 219 c-4 -6 -4 -13 -1 -16 8 -8 36 5 36 17 0 13 -27 13 -35 -1z"/>
    </g>

    <!-- Group containing a path element for another small curved detail -->
    <g transform="translate(0.000000,87.000000) scale(0.100000,-0.100000)" fill="#3a7ff7">
        <!-- Path defining a small curved shape -->
        <path d="M673 203 c-16 -6 -17 -33 -3 -33 11 0 26 28 19 34 -2 2 -10 1 -16 -1z"/>
    </g>
</svg>