<?xml version="1.0" encoding="iso-8859-1"?>
<!-- Uploaded to: SVG Repo, www.svgrepo.com, Generator: SVG Repo Mixer Tools -->
<svg height="800px" width="800px" version="1.1" id="Layer_1" xmlns="http://www.w3.org/2000/svg" xmlns:xlink="http://www.w3.org/1999/xlink" 
	 viewBox="0 0 511.999 511.999" xml:space="preserve">
<path style="fill:#E2E7F0;" d="M399.984,0H112.015c0,35.34-28.653,63.993-63.993,63.993v239.974
	c0,114.859,93.118,207.977,207.977,207.977s207.977-93.118,207.977-207.977V63.993C428.637,63.993,399.984,35.34,399.984,0z"/>
<path style="fill:#C9D5E3;" d="M407.183,29.357c-4.032-8.159-12.335-13.335-21.438-13.359H271.998
	c-8.839,0-15.998,7.159-15.998,15.998v447.951h-45.755c-7.335,0.008-13.271,5.959-13.263,13.295
	c0.008,6.207,4.32,11.583,10.383,12.943c111.676,26.861,223.983-41.899,250.845-153.575c3.832-15.926,5.767-32.26,5.767-48.643
	V63.993C440.067,63.969,418.158,50.61,407.183,29.357z"/>
<path style="fill:#35495C;" d="M255.999,255.972V31.996H138.492c-9.727,27.277-31.197,48.747-58.474,58.474v165.502H255.999z"/>
<g>
	<path style="fill:#F6B545;" d="M373.507,31.996H256v223.975H431.98V90.47C404.703,80.743,383.234,59.274,373.507,31.996z"/>
	<path style="fill:#F6B545;" d="M80.019,255.972v47.995c0,97.189,78.791,175.981,175.981,175.981V255.972H80.019z"/>
</g>
<path style="fill:#35495C;" d="M255.999,255.972v223.975c97.189,0,175.981-78.791,175.981-175.981v-47.995H255.999z"/>
<path style="fill:#F19920;" d="M240.001,271.97v175.981c0,4.415-3.584,7.999-7.999,7.999c-41.275-1.04-78.871-10.159-107.908-35.756
	c33.356,37.924,81.399,59.689,131.906,59.753V255.972l0,0C247.168,255.972,240.001,263.131,240.001,271.97z"/>
<g>
	<path style="fill:#123247;" d="M431.98,255.972c-8.839,0-15.998,7.159-15.998,15.998v15.998
		c-0.016,84.839-60.553,157.599-143.984,173.021c-9.215,1.624-15.95,9.607-15.998,18.958l0,0
		c97.189,0,175.981-78.791,175.981-175.981V255.972L431.98,255.972z"/>
	<path style="fill:#123247;" d="M240.001,47.995v183.98c0,4.416-3.584,7.999-7.999,7.999H96.017
		c-8.839,0-15.998,7.159-15.998,15.998h175.981V31.996l0,0C247.168,31.996,240.001,39.156,240.001,47.995z"/>
</g>
<path style="fill:#F19920;" d="M415.982,103.989v127.986c0,4.416-3.584,7.999-7.999,7.999H271.998
	c-8.839,0-15.998,7.159-15.998,15.998H431.98V87.99l0,0C423.149,87.99,415.982,95.15,415.982,103.989z"/>
</svg>